<?xml version="1.0" encoding="UTF-8" standalone="no"?>
<!DOCTYPE svg PUBLIC "-//W3C//DTD SVG 1.1//EN"
 "http://www.w3.org/Graphics/SVG/1.1/DTD/svg11.dtd">
<!-- Generated by graphviz version 2.40.1 (20161225.0304)
 -->
<!-- Title: Tree Pages: 1 -->
<svg width="678pt" height="685pt"
 viewBox="0.00 0.00 678.00 685.00" xmlns="http://www.w3.org/2000/svg" xmlns:xlink="http://www.w3.org/1999/xlink">
<g id="graph0" class="graph" transform="scale(1 1) rotate(0) translate(4 681)">
<title>Tree</title>
<polygon fill="#ffffff" stroke="transparent" points="-4,4 -4,-681 674,-681 674,4 -4,4"/>
<!-- 0 -->
<g id="node1" class="node">
<title>0</title>
<polygon fill="none" stroke="#000000" points="264.5,-677 124.5,-677 124.5,-609 264.5,-609 264.5,-677"/>
<text text-anchor="middle" x="194.5" y="-661.8" font-family="Helvetica,sans-Serif" font-size="14.00" fill="#000000">X[2] &lt;= 2.45</text>
<text text-anchor="middle" x="194.5" y="-646.8" font-family="Helvetica,sans-Serif" font-size="14.00" fill="#000000">gini = 0.664</text>
<text text-anchor="middle" x="194.5" y="-631.8" font-family="Helvetica,sans-Serif" font-size="14.00" fill="#000000">samples = 105</text>
<text text-anchor="middle" x="194.5" y="-616.8" font-family="Helvetica,sans-Serif" font-size="14.00" fill="#000000">value = [31, 37, 37]</text>
</g>
<!-- 1 -->
<g id="node2" class="node">
<title>1</title>
<polygon fill="none" stroke="#000000" points="184,-565.5 61,-565.5 61,-512.5 184,-512.5 184,-565.5"/>
<text text-anchor="middle" x="122.5" y="-550.3" font-family="Helvetica,sans-Serif" font-size="14.00" fill="#000000">gini = 0.0</text>
<text text-anchor="middle" x="122.5" y="-535.3" font-family="Helvetica,sans-Serif" font-size="14.00" fill="#000000">samples = 31</text>
<text text-anchor="middle" x="122.5" y="-520.3" font-family="Helvetica,sans-Serif" font-size="14.00" fill="#000000">value = [31, 0, 0]</text>
</g>
<!-- 0&#45;&gt;1 -->
<g id="edge1" class="edge">
<title>0&#45;&gt;1</title>
<path fill="none" stroke="#000000" d="M170.9245,-608.9465C163.1463,-597.7113 154.4861,-585.2021 146.6645,-573.9043"/>
<polygon fill="#000000" stroke="#000000" points="149.4452,-571.7719 140.8753,-565.5422 143.6898,-575.7564 149.4452,-571.7719"/>
<text text-anchor="middle" x="136.4032" y="-586.4389" font-family="Helvetica,sans-Serif" font-size="14.00" fill="#000000">True</text>
</g>
<!-- 2 -->
<g id="node3" class="node">
<title>2</title>
<polygon fill="none" stroke="#000000" points="333,-573 202,-573 202,-505 333,-505 333,-573"/>
<text text-anchor="middle" x="267.5" y="-557.8" font-family="Helvetica,sans-Serif" font-size="14.00" fill="#000000">X[2] &lt;= 4.75</text>
<text text-anchor="middle" x="267.5" y="-542.8" font-family="Helvetica,sans-Serif" font-size="14.00" fill="#000000">gini = 0.5</text>
<text text-anchor="middle" x="267.5" y="-527.8" font-family="Helvetica,sans-Serif" font-size="14.00" fill="#000000">samples = 74</text>
<text text-anchor="middle" x="267.5" y="-512.8" font-family="Helvetica,sans-Serif" font-size="14.00" fill="#000000">value = [0, 37, 37]</text>
</g>
<!-- 0&#45;&gt;2 -->
<g id="edge2" class="edge">
<title>0&#45;&gt;2</title>
<path fill="none" stroke="#000000" d="M218.4029,-608.9465C224.5791,-600.1475 231.3038,-590.5672 237.739,-581.3993"/>
<polygon fill="#000000" stroke="#000000" points="240.6629,-583.3258 243.5434,-573.13 234.9334,-579.3041 240.6629,-583.3258"/>
<text text-anchor="middle" x="247.8563" y="-594.0552" font-family="Helvetica,sans-Serif" font-size="14.00" fill="#000000">False</text>
</g>
<!-- 3 -->
<g id="node4" class="node">
<title>3</title>
<polygon fill="none" stroke="#000000" points="258,-469 135,-469 135,-401 258,-401 258,-469"/>
<text text-anchor="middle" x="196.5" y="-453.8" font-family="Helvetica,sans-Serif" font-size="14.00" fill="#000000">X[3] &lt;= 1.6</text>
<text text-anchor="middle" x="196.5" y="-438.8" font-family="Helvetica,sans-Serif" font-size="14.00" fill="#000000">gini = 0.059</text>
<text text-anchor="middle" x="196.5" y="-423.8" font-family="Helvetica,sans-Serif" font-size="14.00" fill="#000000">samples = 33</text>
<text text-anchor="middle" x="196.5" y="-408.8" font-family="Helvetica,sans-Serif" font-size="14.00" fill="#000000">value = [0, 32, 1]</text>
</g>
<!-- 2&#45;&gt;3 -->
<g id="edge3" class="edge">
<title>2&#45;&gt;3</title>
<path fill="none" stroke="#000000" d="M244.2519,-504.9465C238.245,-496.1475 231.7045,-486.5672 225.4457,-477.3993"/>
<polygon fill="#000000" stroke="#000000" points="228.3293,-475.4155 219.8003,-469.13 222.548,-479.3623 228.3293,-475.4155"/>
</g>
<!-- 6 -->
<g id="node7" class="node">
<title>6</title>
<polygon fill="none" stroke="#000000" points="399,-469 276,-469 276,-401 399,-401 399,-469"/>
<text text-anchor="middle" x="337.5" y="-453.8" font-family="Helvetica,sans-Serif" font-size="14.00" fill="#000000">X[3] &lt;= 1.75</text>
<text text-anchor="middle" x="337.5" y="-438.8" font-family="Helvetica,sans-Serif" font-size="14.00" fill="#000000">gini = 0.214</text>
<text text-anchor="middle" x="337.5" y="-423.8" font-family="Helvetica,sans-Serif" font-size="14.00" fill="#000000">samples = 41</text>
<text text-anchor="middle" x="337.5" y="-408.8" font-family="Helvetica,sans-Serif" font-size="14.00" fill="#000000">value = [0, 5, 36]</text>
</g>
<!-- 2&#45;&gt;6 -->
<g id="edge6" class="edge">
<title>2&#45;&gt;6</title>
<path fill="none" stroke="#000000" d="M290.4206,-504.9465C296.2826,-496.2373 302.6598,-486.7626 308.773,-477.6801"/>
<polygon fill="#000000" stroke="#000000" points="311.8476,-479.3802 314.5279,-469.13 306.0405,-475.4716 311.8476,-479.3802"/>
</g>
<!-- 4 -->
<g id="node5" class="node">
<title>4</title>
<polygon fill="none" stroke="#000000" points="123,-357.5 0,-357.5 0,-304.5 123,-304.5 123,-357.5"/>
<text text-anchor="middle" x="61.5" y="-342.3" font-family="Helvetica,sans-Serif" font-size="14.00" fill="#000000">gini = 0.0</text>
<text text-anchor="middle" x="61.5" y="-327.3" font-family="Helvetica,sans-Serif" font-size="14.00" fill="#000000">samples = 32</text>
<text text-anchor="middle" x="61.5" y="-312.3" font-family="Helvetica,sans-Serif" font-size="14.00" fill="#000000">value = [0, 32, 0]</text>
</g>
<!-- 3&#45;&gt;4 -->
<g id="edge4" class="edge">
<title>3&#45;&gt;4</title>
<path fill="none" stroke="#000000" d="M152.296,-400.9465C136.8539,-389.0504 119.5578,-375.726 104.2375,-363.9237"/>
<polygon fill="#000000" stroke="#000000" points="106.0117,-360.8723 95.9538,-357.5422 101.7397,-366.4176 106.0117,-360.8723"/>
</g>
<!-- 5 -->
<g id="node6" class="node">
<title>5</title>
<polygon fill="none" stroke="#000000" points="256,-357.5 141,-357.5 141,-304.5 256,-304.5 256,-357.5"/>
<text text-anchor="middle" x="198.5" y="-342.3" font-family="Helvetica,sans-Serif" font-size="14.00" fill="#000000">gini = 0.0</text>
<text text-anchor="middle" x="198.5" y="-327.3" font-family="Helvetica,sans-Serif" font-size="14.00" fill="#000000">samples = 1</text>
<text text-anchor="middle" x="198.5" y="-312.3" font-family="Helvetica,sans-Serif" font-size="14.00" fill="#000000">value = [0, 0, 1]</text>
</g>
<!-- 3&#45;&gt;5 -->
<g id="edge5" class="edge">
<title>3&#45;&gt;5</title>
<path fill="none" stroke="#000000" d="M197.1549,-400.9465C197.3603,-390.2621 197.588,-378.4254 197.7966,-367.5742"/>
<polygon fill="#000000" stroke="#000000" points="201.2966,-367.6076 197.9896,-357.5422 194.2979,-367.473 201.2966,-367.6076"/>
</g>
<!-- 7 -->
<g id="node8" class="node">
<title>7</title>
<polygon fill="none" stroke="#000000" points="393,-365 278,-365 278,-297 393,-297 393,-365"/>
<text text-anchor="middle" x="335.5" y="-349.8" font-family="Helvetica,sans-Serif" font-size="14.00" fill="#000000">X[2] &lt;= 4.95</text>
<text text-anchor="middle" x="335.5" y="-334.8" font-family="Helvetica,sans-Serif" font-size="14.00" fill="#000000">gini = 0.5</text>
<text text-anchor="middle" x="335.5" y="-319.8" font-family="Helvetica,sans-Serif" font-size="14.00" fill="#000000">samples = 8</text>
<text text-anchor="middle" x="335.5" y="-304.8" font-family="Helvetica,sans-Serif" font-size="14.00" fill="#000000">value = [0, 4, 4]</text>
</g>
<!-- 6&#45;&gt;7 -->
<g id="edge7" class="edge">
<title>6&#45;&gt;7</title>
<path fill="none" stroke="#000000" d="M336.8451,-400.9465C336.688,-392.776 336.5179,-383.9318 336.3533,-375.3697"/>
<polygon fill="#000000" stroke="#000000" points="339.8481,-375.0608 336.1563,-365.13 332.8494,-375.1955 339.8481,-375.0608"/>
</g>
<!-- 14 -->
<g id="node15" class="node">
<title>14</title>
<polygon fill="none" stroke="#000000" points="534,-365 411,-365 411,-297 534,-297 534,-365"/>
<text text-anchor="middle" x="472.5" y="-349.8" font-family="Helvetica,sans-Serif" font-size="14.00" fill="#000000">X[2] &lt;= 4.85</text>
<text text-anchor="middle" x="472.5" y="-334.8" font-family="Helvetica,sans-Serif" font-size="14.00" fill="#000000">gini = 0.059</text>
<text text-anchor="middle" x="472.5" y="-319.8" font-family="Helvetica,sans-Serif" font-size="14.00" fill="#000000">samples = 33</text>
<text text-anchor="middle" x="472.5" y="-304.8" font-family="Helvetica,sans-Serif" font-size="14.00" fill="#000000">value = [0, 1, 32]</text>
</g>
<!-- 6&#45;&gt;14 -->
<g id="edge14" class="edge">
<title>6&#45;&gt;14</title>
<path fill="none" stroke="#000000" d="M381.704,-400.9465C393.9416,-391.519 407.3436,-381.1946 420.0038,-371.4415"/>
<polygon fill="#000000" stroke="#000000" points="422.4107,-374.0055 428.1966,-365.13 418.1388,-368.4601 422.4107,-374.0055"/>
</g>
<!-- 8 -->
<g id="node9" class="node">
<title>8</title>
<polygon fill="none" stroke="#000000" points="261,-253.5 146,-253.5 146,-200.5 261,-200.5 261,-253.5"/>
<text text-anchor="middle" x="203.5" y="-238.3" font-family="Helvetica,sans-Serif" font-size="14.00" fill="#000000">gini = 0.0</text>
<text text-anchor="middle" x="203.5" y="-223.3" font-family="Helvetica,sans-Serif" font-size="14.00" fill="#000000">samples = 2</text>
<text text-anchor="middle" x="203.5" y="-208.3" font-family="Helvetica,sans-Serif" font-size="14.00" fill="#000000">value = [0, 2, 0]</text>
</g>
<!-- 7&#45;&gt;8 -->
<g id="edge8" class="edge">
<title>7&#45;&gt;8</title>
<path fill="none" stroke="#000000" d="M292.2783,-296.9465C277.1794,-285.0504 260.2676,-271.726 245.2878,-259.9237"/>
<polygon fill="#000000" stroke="#000000" points="247.2091,-256.9817 237.1881,-253.5422 242.877,-262.4802 247.2091,-256.9817"/>
</g>
<!-- 9 -->
<g id="node10" class="node">
<title>9</title>
<polygon fill="none" stroke="#000000" points="394,-261 279,-261 279,-193 394,-193 394,-261"/>
<text text-anchor="middle" x="336.5" y="-245.8" font-family="Helvetica,sans-Serif" font-size="14.00" fill="#000000">X[3] &lt;= 1.55</text>
<text text-anchor="middle" x="336.5" y="-230.8" font-family="Helvetica,sans-Serif" font-size="14.00" fill="#000000">gini = 0.444</text>
<text text-anchor="middle" x="336.5" y="-215.8" font-family="Helvetica,sans-Serif" font-size="14.00" fill="#000000">samples = 6</text>
<text text-anchor="middle" x="336.5" y="-200.8" font-family="Helvetica,sans-Serif" font-size="14.00" fill="#000000">value = [0, 2, 4]</text>
</g>
<!-- 7&#45;&gt;9 -->
<g id="edge9" class="edge">
<title>7&#45;&gt;9</title>
<path fill="none" stroke="#000000" d="M335.8274,-296.9465C335.906,-288.776 335.991,-279.9318 336.0734,-271.3697"/>
<polygon fill="#000000" stroke="#000000" points="339.5754,-271.1632 336.1718,-261.13 332.5757,-271.0958 339.5754,-271.1632"/>
</g>
<!-- 10 -->
<g id="node11" class="node">
<title>10</title>
<polygon fill="none" stroke="#000000" points="262,-149.5 147,-149.5 147,-96.5 262,-96.5 262,-149.5"/>
<text text-anchor="middle" x="204.5" y="-134.3" font-family="Helvetica,sans-Serif" font-size="14.00" fill="#000000">gini = 0.0</text>
<text text-anchor="middle" x="204.5" y="-119.3" font-family="Helvetica,sans-Serif" font-size="14.00" fill="#000000">samples = 3</text>
<text text-anchor="middle" x="204.5" y="-104.3" font-family="Helvetica,sans-Serif" font-size="14.00" fill="#000000">value = [0, 0, 3]</text>
</g>
<!-- 9&#45;&gt;10 -->
<g id="edge10" class="edge">
<title>9&#45;&gt;10</title>
<path fill="none" stroke="#000000" d="M293.2783,-192.9465C278.1794,-181.0504 261.2676,-167.726 246.2878,-155.9237"/>
<polygon fill="#000000" stroke="#000000" points="248.2091,-152.9817 238.1881,-149.5422 243.877,-158.4802 248.2091,-152.9817"/>
</g>
<!-- 11 -->
<g id="node12" class="node">
<title>11</title>
<polygon fill="none" stroke="#000000" points="395,-157 280,-157 280,-89 395,-89 395,-157"/>
<text text-anchor="middle" x="337.5" y="-141.8" font-family="Helvetica,sans-Serif" font-size="14.00" fill="#000000">X[2] &lt;= 5.45</text>
<text text-anchor="middle" x="337.5" y="-126.8" font-family="Helvetica,sans-Serif" font-size="14.00" fill="#000000">gini = 0.444</text>
<text text-anchor="middle" x="337.5" y="-111.8" font-family="Helvetica,sans-Serif" font-size="14.00" fill="#000000">samples = 3</text>
<text text-anchor="middle" x="337.5" y="-96.8" font-family="Helvetica,sans-Serif" font-size="14.00" fill="#000000">value = [0, 2, 1]</text>
</g>
<!-- 9&#45;&gt;11 -->
<g id="edge11" class="edge">
<title>9&#45;&gt;11</title>
<path fill="none" stroke="#000000" d="M336.8274,-192.9465C336.906,-184.776 336.991,-175.9318 337.0734,-167.3697"/>
<polygon fill="#000000" stroke="#000000" points="340.5754,-167.1632 337.1718,-157.13 333.5757,-167.0958 340.5754,-167.1632"/>
</g>
<!-- 12 -->
<g id="node13" class="node">
<title>12</title>
<polygon fill="none" stroke="#000000" points="328,-53 213,-53 213,0 328,0 328,-53"/>
<text text-anchor="middle" x="270.5" y="-37.8" font-family="Helvetica,sans-Serif" font-size="14.00" fill="#000000">gini = 0.0</text>
<text text-anchor="middle" x="270.5" y="-22.8" font-family="Helvetica,sans-Serif" font-size="14.00" fill="#000000">samples = 2</text>
<text text-anchor="middle" x="270.5" y="-7.8" font-family="Helvetica,sans-Serif" font-size="14.00" fill="#000000">value = [0, 2, 0]</text>
</g>
<!-- 11&#45;&gt;12 -->
<g id="edge12" class="edge">
<title>11&#45;&gt;12</title>
<path fill="none" stroke="#000000" d="M313.8783,-88.9777C307.7113,-80.0954 301.0539,-70.5067 294.8499,-61.5711"/>
<polygon fill="#000000" stroke="#000000" points="297.6497,-59.4666 289.0715,-53.2485 291.8997,-63.4589 297.6497,-59.4666"/>
</g>
<!-- 13 -->
<g id="node14" class="node">
<title>13</title>
<polygon fill="none" stroke="#000000" points="461,-53 346,-53 346,0 461,0 461,-53"/>
<text text-anchor="middle" x="403.5" y="-37.8" font-family="Helvetica,sans-Serif" font-size="14.00" fill="#000000">gini = 0.0</text>
<text text-anchor="middle" x="403.5" y="-22.8" font-family="Helvetica,sans-Serif" font-size="14.00" fill="#000000">samples = 1</text>
<text text-anchor="middle" x="403.5" y="-7.8" font-family="Helvetica,sans-Serif" font-size="14.00" fill="#000000">value = [0, 0, 1]</text>
</g>
<!-- 11&#45;&gt;13 -->
<g id="edge13" class="edge">
<title>11&#45;&gt;13</title>
<path fill="none" stroke="#000000" d="M360.7691,-88.9777C366.844,-80.0954 373.4021,-70.5067 379.5135,-61.5711"/>
<polygon fill="#000000" stroke="#000000" points="382.4493,-63.4785 385.2057,-53.2485 376.6714,-59.5267 382.4493,-63.4785"/>
</g>
<!-- 15 -->
<g id="node16" class="node">
<title>15</title>
<polygon fill="none" stroke="#000000" points="529,-261 414,-261 414,-193 529,-193 529,-261"/>
<text text-anchor="middle" x="471.5" y="-245.8" font-family="Helvetica,sans-Serif" font-size="14.00" fill="#000000">X[0] &lt;= 5.95</text>
<text text-anchor="middle" x="471.5" y="-230.8" font-family="Helvetica,sans-Serif" font-size="14.00" fill="#000000">gini = 0.444</text>
<text text-anchor="middle" x="471.5" y="-215.8" font-family="Helvetica,sans-Serif" font-size="14.00" fill="#000000">samples = 3</text>
<text text-anchor="middle" x="471.5" y="-200.8" font-family="Helvetica,sans-Serif" font-size="14.00" fill="#000000">value = [0, 1, 2]</text>
</g>
<!-- 14&#45;&gt;15 -->
<g id="edge15" class="edge">
<title>14&#45;&gt;15</title>
<path fill="none" stroke="#000000" d="M472.1726,-296.9465C472.094,-288.776 472.009,-279.9318 471.9266,-271.3697"/>
<polygon fill="#000000" stroke="#000000" points="475.4243,-271.0958 471.8282,-261.13 468.4246,-271.1632 475.4243,-271.0958"/>
</g>
<!-- 18 -->
<g id="node19" class="node">
<title>18</title>
<polygon fill="none" stroke="#000000" points="670,-253.5 547,-253.5 547,-200.5 670,-200.5 670,-253.5"/>
<text text-anchor="middle" x="608.5" y="-238.3" font-family="Helvetica,sans-Serif" font-size="14.00" fill="#000000">gini = 0.0</text>
<text text-anchor="middle" x="608.5" y="-223.3" font-family="Helvetica,sans-Serif" font-size="14.00" fill="#000000">samples = 30</text>
<text text-anchor="middle" x="608.5" y="-208.3" font-family="Helvetica,sans-Serif" font-size="14.00" fill="#000000">value = [0, 0, 30]</text>
</g>
<!-- 14&#45;&gt;18 -->
<g id="edge18" class="edge">
<title>14&#45;&gt;18</title>
<path fill="none" stroke="#000000" d="M517.0315,-296.9465C532.5879,-285.0504 550.0121,-271.726 565.4459,-259.9237"/>
<polygon fill="#000000" stroke="#000000" points="567.9735,-262.397 573.791,-253.5422 563.7213,-256.8364 567.9735,-262.397"/>
</g>
<!-- 16 -->
<g id="node17" class="node">
<title>16</title>
<polygon fill="none" stroke="#000000" points="528,-149.5 413,-149.5 413,-96.5 528,-96.5 528,-149.5"/>
<text text-anchor="middle" x="470.5" y="-134.3" font-family="Helvetica,sans-Serif" font-size="14.00" fill="#000000">gini = 0.0</text>
<text text-anchor="middle" x="470.5" y="-119.3" font-family="Helvetica,sans-Serif" font-size="14.00" fill="#000000">samples = 1</text>
<text text-anchor="middle" x="470.5" y="-104.3" font-family="Helvetica,sans-Serif" font-size="14.00" fill="#000000">value = [0, 1, 0]</text>
</g>
<!-- 15&#45;&gt;16 -->
<g id="edge16" class="edge">
<title>15&#45;&gt;16</title>
<path fill="none" stroke="#000000" d="M471.1726,-192.9465C471.0698,-182.2621 470.956,-170.4254 470.8517,-159.5742"/>
<polygon fill="#000000" stroke="#000000" points="474.3513,-159.508 470.7552,-149.5422 467.3516,-159.5754 474.3513,-159.508"/>
</g>
<!-- 17 -->
<g id="node18" class="node">
<title>17</title>
<polygon fill="none" stroke="#000000" points="661,-149.5 546,-149.5 546,-96.5 661,-96.5 661,-149.5"/>
<text text-anchor="middle" x="603.5" y="-134.3" font-family="Helvetica,sans-Serif" font-size="14.00" fill="#000000">gini = 0.0</text>
<text text-anchor="middle" x="603.5" y="-119.3" font-family="Helvetica,sans-Serif" font-size="14.00" fill="#000000">samples = 2</text>
<text text-anchor="middle" x="603.5" y="-104.3" font-family="Helvetica,sans-Serif" font-size="14.00" fill="#000000">value = [0, 0, 2]</text>
</g>
<!-- 15&#45;&gt;17 -->
<g id="edge17" class="edge">
<title>15&#45;&gt;17</title>
<path fill="none" stroke="#000000" d="M514.7217,-192.9465C529.8206,-181.0504 546.7324,-167.726 561.7122,-155.9237"/>
<polygon fill="#000000" stroke="#000000" points="564.123,-158.4802 569.8119,-149.5422 559.7909,-152.9817 564.123,-158.4802"/>
</g>
</g>
</svg>
