<?xml version="1.0" encoding="UTF-8" standalone="no"?>
<!DOCTYPE svg PUBLIC "-//W3C//DTD SVG 1.1//EN"
 "http://www.w3.org/Graphics/SVG/1.1/DTD/svg11.dtd">
<!-- Generated by graphviz version 2.40.1 (20161225.0304)
 -->
<!-- Title: Tree Pages: 1 -->
<svg width="599pt" height="685pt"
 viewBox="0.00 0.00 599.00 685.00" xmlns="http://www.w3.org/2000/svg" xmlns:xlink="http://www.w3.org/1999/xlink">
<g id="graph0" class="graph" transform="scale(1 1) rotate(0) translate(4 681)">
<title>Tree</title>
<polygon fill="#ffffff" stroke="transparent" points="-4,4 -4,-681 595,-681 595,4 -4,4"/>
<!-- 0 -->
<g id="node1" class="node">
<title>0</title>
<polygon fill="none" stroke="#000000" points="264.5,-677 124.5,-677 124.5,-609 264.5,-609 264.5,-677"/>
<text text-anchor="middle" x="194.5" y="-661.8" font-family="Helvetica,sans-Serif" font-size="14.00" fill="#000000">X[2] &lt;= 2.6</text>
<text text-anchor="middle" x="194.5" y="-646.8" font-family="Helvetica,sans-Serif" font-size="14.00" fill="#000000">gini = 0.665</text>
<text text-anchor="middle" x="194.5" y="-631.8" font-family="Helvetica,sans-Serif" font-size="14.00" fill="#000000">samples = 94</text>
<text text-anchor="middle" x="194.5" y="-616.8" font-family="Helvetica,sans-Serif" font-size="14.00" fill="#000000">value = [30, 30, 34]</text>
</g>
<!-- 1 -->
<g id="node2" class="node">
<title>1</title>
<polygon fill="none" stroke="#000000" points="184,-565.5 61,-565.5 61,-512.5 184,-512.5 184,-565.5"/>
<text text-anchor="middle" x="122.5" y="-550.3" font-family="Helvetica,sans-Serif" font-size="14.00" fill="#000000">gini = 0.0</text>
<text text-anchor="middle" x="122.5" y="-535.3" font-family="Helvetica,sans-Serif" font-size="14.00" fill="#000000">samples = 30</text>
<text text-anchor="middle" x="122.5" y="-520.3" font-family="Helvetica,sans-Serif" font-size="14.00" fill="#000000">value = [30, 0, 0]</text>
</g>
<!-- 0&#45;&gt;1 -->
<g id="edge1" class="edge">
<title>0&#45;&gt;1</title>
<path fill="none" stroke="#000000" d="M170.9245,-608.9465C163.1463,-597.7113 154.4861,-585.2021 146.6645,-573.9043"/>
<polygon fill="#000000" stroke="#000000" points="149.4452,-571.7719 140.8753,-565.5422 143.6898,-575.7564 149.4452,-571.7719"/>
<text text-anchor="middle" x="136.4032" y="-586.4389" font-family="Helvetica,sans-Serif" font-size="14.00" fill="#000000">True</text>
</g>
<!-- 2 -->
<g id="node3" class="node">
<title>2</title>
<polygon fill="none" stroke="#000000" points="333,-573 202,-573 202,-505 333,-505 333,-573"/>
<text text-anchor="middle" x="267.5" y="-557.8" font-family="Helvetica,sans-Serif" font-size="14.00" fill="#000000">X[3] &lt;= 1.55</text>
<text text-anchor="middle" x="267.5" y="-542.8" font-family="Helvetica,sans-Serif" font-size="14.00" fill="#000000">gini = 0.498</text>
<text text-anchor="middle" x="267.5" y="-527.8" font-family="Helvetica,sans-Serif" font-size="14.00" fill="#000000">samples = 64</text>
<text text-anchor="middle" x="267.5" y="-512.8" font-family="Helvetica,sans-Serif" font-size="14.00" fill="#000000">value = [0, 30, 34]</text>
</g>
<!-- 0&#45;&gt;2 -->
<g id="edge2" class="edge">
<title>0&#45;&gt;2</title>
<path fill="none" stroke="#000000" d="M218.4029,-608.9465C224.5791,-600.1475 231.3038,-590.5672 237.739,-581.3993"/>
<polygon fill="#000000" stroke="#000000" points="240.6629,-583.3258 243.5434,-573.13 234.9334,-579.3041 240.6629,-583.3258"/>
<text text-anchor="middle" x="247.8563" y="-594.0552" font-family="Helvetica,sans-Serif" font-size="14.00" fill="#000000">False</text>
</g>
<!-- 3 -->
<g id="node4" class="node">
<title>3</title>
<polygon fill="none" stroke="#000000" points="258,-469 135,-469 135,-401 258,-401 258,-469"/>
<text text-anchor="middle" x="196.5" y="-453.8" font-family="Helvetica,sans-Serif" font-size="14.00" fill="#000000">X[2] &lt;= 5.0</text>
<text text-anchor="middle" x="196.5" y="-438.8" font-family="Helvetica,sans-Serif" font-size="14.00" fill="#000000">gini = 0.124</text>
<text text-anchor="middle" x="196.5" y="-423.8" font-family="Helvetica,sans-Serif" font-size="14.00" fill="#000000">samples = 30</text>
<text text-anchor="middle" x="196.5" y="-408.8" font-family="Helvetica,sans-Serif" font-size="14.00" fill="#000000">value = [0, 28, 2]</text>
</g>
<!-- 2&#45;&gt;3 -->
<g id="edge3" class="edge">
<title>2&#45;&gt;3</title>
<path fill="none" stroke="#000000" d="M244.2519,-504.9465C238.245,-496.1475 231.7045,-486.5672 225.4457,-477.3993"/>
<polygon fill="#000000" stroke="#000000" points="228.3293,-475.4155 219.8003,-469.13 222.548,-479.3623 228.3293,-475.4155"/>
</g>
<!-- 6 -->
<g id="node7" class="node">
<title>6</title>
<polygon fill="none" stroke="#000000" points="399,-469 276,-469 276,-401 399,-401 399,-469"/>
<text text-anchor="middle" x="337.5" y="-453.8" font-family="Helvetica,sans-Serif" font-size="14.00" fill="#000000">X[2] &lt;= 5.05</text>
<text text-anchor="middle" x="337.5" y="-438.8" font-family="Helvetica,sans-Serif" font-size="14.00" fill="#000000">gini = 0.111</text>
<text text-anchor="middle" x="337.5" y="-423.8" font-family="Helvetica,sans-Serif" font-size="14.00" fill="#000000">samples = 34</text>
<text text-anchor="middle" x="337.5" y="-408.8" font-family="Helvetica,sans-Serif" font-size="14.00" fill="#000000">value = [0, 2, 32]</text>
</g>
<!-- 2&#45;&gt;6 -->
<g id="edge6" class="edge">
<title>2&#45;&gt;6</title>
<path fill="none" stroke="#000000" d="M290.4206,-504.9465C296.2826,-496.2373 302.6598,-486.7626 308.773,-477.6801"/>
<polygon fill="#000000" stroke="#000000" points="311.8476,-479.3802 314.5279,-469.13 306.0405,-475.4716 311.8476,-479.3802"/>
</g>
<!-- 4 -->
<g id="node5" class="node">
<title>4</title>
<polygon fill="none" stroke="#000000" points="123,-357.5 0,-357.5 0,-304.5 123,-304.5 123,-357.5"/>
<text text-anchor="middle" x="61.5" y="-342.3" font-family="Helvetica,sans-Serif" font-size="14.00" fill="#000000">gini = 0.0</text>
<text text-anchor="middle" x="61.5" y="-327.3" font-family="Helvetica,sans-Serif" font-size="14.00" fill="#000000">samples = 28</text>
<text text-anchor="middle" x="61.5" y="-312.3" font-family="Helvetica,sans-Serif" font-size="14.00" fill="#000000">value = [0, 28, 0]</text>
</g>
<!-- 3&#45;&gt;4 -->
<g id="edge4" class="edge">
<title>3&#45;&gt;4</title>
<path fill="none" stroke="#000000" d="M152.296,-400.9465C136.8539,-389.0504 119.5578,-375.726 104.2375,-363.9237"/>
<polygon fill="#000000" stroke="#000000" points="106.0117,-360.8723 95.9538,-357.5422 101.7397,-366.4176 106.0117,-360.8723"/>
</g>
<!-- 5 -->
<g id="node6" class="node">
<title>5</title>
<polygon fill="none" stroke="#000000" points="256,-357.5 141,-357.5 141,-304.5 256,-304.5 256,-357.5"/>
<text text-anchor="middle" x="198.5" y="-342.3" font-family="Helvetica,sans-Serif" font-size="14.00" fill="#000000">gini = 0.0</text>
<text text-anchor="middle" x="198.5" y="-327.3" font-family="Helvetica,sans-Serif" font-size="14.00" fill="#000000">samples = 2</text>
<text text-anchor="middle" x="198.5" y="-312.3" font-family="Helvetica,sans-Serif" font-size="14.00" fill="#000000">value = [0, 0, 2]</text>
</g>
<!-- 3&#45;&gt;5 -->
<g id="edge5" class="edge">
<title>3&#45;&gt;5</title>
<path fill="none" stroke="#000000" d="M197.1549,-400.9465C197.3603,-390.2621 197.588,-378.4254 197.7966,-367.5742"/>
<polygon fill="#000000" stroke="#000000" points="201.2966,-367.6076 197.9896,-357.5422 194.2979,-367.473 201.2966,-367.6076"/>
</g>
<!-- 7 -->
<g id="node8" class="node">
<title>7</title>
<polygon fill="none" stroke="#000000" points="393,-365 278,-365 278,-297 393,-297 393,-365"/>
<text text-anchor="middle" x="335.5" y="-349.8" font-family="Helvetica,sans-Serif" font-size="14.00" fill="#000000">X[1] &lt;= 2.9</text>
<text text-anchor="middle" x="335.5" y="-334.8" font-family="Helvetica,sans-Serif" font-size="14.00" fill="#000000">gini = 0.375</text>
<text text-anchor="middle" x="335.5" y="-319.8" font-family="Helvetica,sans-Serif" font-size="14.00" fill="#000000">samples = 8</text>
<text text-anchor="middle" x="335.5" y="-304.8" font-family="Helvetica,sans-Serif" font-size="14.00" fill="#000000">value = [0, 2, 6]</text>
</g>
<!-- 6&#45;&gt;7 -->
<g id="edge7" class="edge">
<title>6&#45;&gt;7</title>
<path fill="none" stroke="#000000" d="M336.8451,-400.9465C336.688,-392.776 336.5179,-383.9318 336.3533,-375.3697"/>
<polygon fill="#000000" stroke="#000000" points="339.8481,-375.0608 336.1563,-365.13 332.8494,-375.1955 339.8481,-375.0608"/>
</g>
<!-- 14 -->
<g id="node15" class="node">
<title>14</title>
<polygon fill="none" stroke="#000000" points="534,-357.5 411,-357.5 411,-304.5 534,-304.5 534,-357.5"/>
<text text-anchor="middle" x="472.5" y="-342.3" font-family="Helvetica,sans-Serif" font-size="14.00" fill="#000000">gini = 0.0</text>
<text text-anchor="middle" x="472.5" y="-327.3" font-family="Helvetica,sans-Serif" font-size="14.00" fill="#000000">samples = 26</text>
<text text-anchor="middle" x="472.5" y="-312.3" font-family="Helvetica,sans-Serif" font-size="14.00" fill="#000000">value = [0, 0, 26]</text>
</g>
<!-- 6&#45;&gt;14 -->
<g id="edge14" class="edge">
<title>6&#45;&gt;14</title>
<path fill="none" stroke="#000000" d="M381.704,-400.9465C397.1461,-389.0504 414.4422,-375.726 429.7625,-363.9237"/>
<polygon fill="#000000" stroke="#000000" points="432.2603,-366.4176 438.0462,-357.5422 427.9883,-360.8723 432.2603,-366.4176"/>
</g>
<!-- 8 -->
<g id="node9" class="node">
<title>8</title>
<polygon fill="none" stroke="#000000" points="326,-253.5 211,-253.5 211,-200.5 326,-200.5 326,-253.5"/>
<text text-anchor="middle" x="268.5" y="-238.3" font-family="Helvetica,sans-Serif" font-size="14.00" fill="#000000">gini = 0.0</text>
<text text-anchor="middle" x="268.5" y="-223.3" font-family="Helvetica,sans-Serif" font-size="14.00" fill="#000000">samples = 5</text>
<text text-anchor="middle" x="268.5" y="-208.3" font-family="Helvetica,sans-Serif" font-size="14.00" fill="#000000">value = [0, 0, 5]</text>
</g>
<!-- 7&#45;&gt;8 -->
<g id="edge8" class="edge">
<title>7&#45;&gt;8</title>
<path fill="none" stroke="#000000" d="M313.5617,-296.9465C306.3946,-285.8215 298.4227,-273.4473 291.2007,-262.237"/>
<polygon fill="#000000" stroke="#000000" points="293.9574,-260.0532 285.5993,-253.5422 288.0728,-263.8442 293.9574,-260.0532"/>
</g>
<!-- 9 -->
<g id="node10" class="node">
<title>9</title>
<polygon fill="none" stroke="#000000" points="459,-261 344,-261 344,-193 459,-193 459,-261"/>
<text text-anchor="middle" x="401.5" y="-245.8" font-family="Helvetica,sans-Serif" font-size="14.00" fill="#000000">X[3] &lt;= 1.75</text>
<text text-anchor="middle" x="401.5" y="-230.8" font-family="Helvetica,sans-Serif" font-size="14.00" fill="#000000">gini = 0.444</text>
<text text-anchor="middle" x="401.5" y="-215.8" font-family="Helvetica,sans-Serif" font-size="14.00" fill="#000000">samples = 3</text>
<text text-anchor="middle" x="401.5" y="-200.8" font-family="Helvetica,sans-Serif" font-size="14.00" fill="#000000">value = [0, 2, 1]</text>
</g>
<!-- 7&#45;&gt;9 -->
<g id="edge9" class="edge">
<title>7&#45;&gt;9</title>
<path fill="none" stroke="#000000" d="M357.1109,-296.9465C362.6378,-288.2373 368.6506,-278.7626 374.4146,-269.6801"/>
<polygon fill="#000000" stroke="#000000" points="377.4374,-271.4487 379.8406,-261.13 371.5271,-267.6979 377.4374,-271.4487"/>
</g>
<!-- 10 -->
<g id="node11" class="node">
<title>10</title>
<polygon fill="none" stroke="#000000" points="392,-149.5 277,-149.5 277,-96.5 392,-96.5 392,-149.5"/>
<text text-anchor="middle" x="334.5" y="-134.3" font-family="Helvetica,sans-Serif" font-size="14.00" fill="#000000">gini = 0.0</text>
<text text-anchor="middle" x="334.5" y="-119.3" font-family="Helvetica,sans-Serif" font-size="14.00" fill="#000000">samples = 1</text>
<text text-anchor="middle" x="334.5" y="-104.3" font-family="Helvetica,sans-Serif" font-size="14.00" fill="#000000">value = [0, 1, 0]</text>
</g>
<!-- 9&#45;&gt;10 -->
<g id="edge10" class="edge">
<title>9&#45;&gt;10</title>
<path fill="none" stroke="#000000" d="M379.5617,-192.9465C372.3946,-181.8215 364.4227,-169.4473 357.2007,-158.237"/>
<polygon fill="#000000" stroke="#000000" points="359.9574,-156.0532 351.5993,-149.5422 354.0728,-159.8442 359.9574,-156.0532"/>
</g>
<!-- 11 -->
<g id="node12" class="node">
<title>11</title>
<polygon fill="none" stroke="#000000" points="525,-157 410,-157 410,-89 525,-89 525,-157"/>
<text text-anchor="middle" x="467.5" y="-141.8" font-family="Helvetica,sans-Serif" font-size="14.00" fill="#000000">X[1] &lt;= 3.1</text>
<text text-anchor="middle" x="467.5" y="-126.8" font-family="Helvetica,sans-Serif" font-size="14.00" fill="#000000">gini = 0.5</text>
<text text-anchor="middle" x="467.5" y="-111.8" font-family="Helvetica,sans-Serif" font-size="14.00" fill="#000000">samples = 2</text>
<text text-anchor="middle" x="467.5" y="-96.8" font-family="Helvetica,sans-Serif" font-size="14.00" fill="#000000">value = [0, 1, 1]</text>
</g>
<!-- 9&#45;&gt;11 -->
<g id="edge11" class="edge">
<title>9&#45;&gt;11</title>
<path fill="none" stroke="#000000" d="M423.1109,-192.9465C428.6378,-184.2373 434.6506,-174.7626 440.4146,-165.6801"/>
<polygon fill="#000000" stroke="#000000" points="443.4374,-167.4487 445.8406,-157.13 437.5271,-163.6979 443.4374,-167.4487"/>
</g>
<!-- 12 -->
<g id="node13" class="node">
<title>12</title>
<polygon fill="none" stroke="#000000" points="458,-53 343,-53 343,0 458,0 458,-53"/>
<text text-anchor="middle" x="400.5" y="-37.8" font-family="Helvetica,sans-Serif" font-size="14.00" fill="#000000">gini = 0.0</text>
<text text-anchor="middle" x="400.5" y="-22.8" font-family="Helvetica,sans-Serif" font-size="14.00" fill="#000000">samples = 1</text>
<text text-anchor="middle" x="400.5" y="-7.8" font-family="Helvetica,sans-Serif" font-size="14.00" fill="#000000">value = [0, 0, 1]</text>
</g>
<!-- 11&#45;&gt;12 -->
<g id="edge12" class="edge">
<title>11&#45;&gt;12</title>
<path fill="none" stroke="#000000" d="M443.8783,-88.9777C437.7113,-80.0954 431.0539,-70.5067 424.8499,-61.5711"/>
<polygon fill="#000000" stroke="#000000" points="427.6497,-59.4666 419.0715,-53.2485 421.8997,-63.4589 427.6497,-59.4666"/>
</g>
<!-- 13 -->
<g id="node14" class="node">
<title>13</title>
<polygon fill="none" stroke="#000000" points="591,-53 476,-53 476,0 591,0 591,-53"/>
<text text-anchor="middle" x="533.5" y="-37.8" font-family="Helvetica,sans-Serif" font-size="14.00" fill="#000000">gini = 0.0</text>
<text text-anchor="middle" x="533.5" y="-22.8" font-family="Helvetica,sans-Serif" font-size="14.00" fill="#000000">samples = 1</text>
<text text-anchor="middle" x="533.5" y="-7.8" font-family="Helvetica,sans-Serif" font-size="14.00" fill="#000000">value = [0, 1, 0]</text>
</g>
<!-- 11&#45;&gt;13 -->
<g id="edge13" class="edge">
<title>11&#45;&gt;13</title>
<path fill="none" stroke="#000000" d="M490.7691,-88.9777C496.844,-80.0954 503.4021,-70.5067 509.5135,-61.5711"/>
<polygon fill="#000000" stroke="#000000" points="512.4493,-63.4785 515.2057,-53.2485 506.6714,-59.5267 512.4493,-63.4785"/>
</g>
</g>
</svg>
